<svg xmlns="http://www.w3.org/2000/svg" width="19.188" height="19.188" viewBox="0 0 19.188 19.188">
  <g id="Component_53_1" data-name="Component 53 – 1" transform="translate(1.414 1.414)">
    <g id="Icon_feather-bell-off" data-name="Icon feather-bell-off" transform="translate(-1.5 -1.5)">
      <path id="Path_113" data-name="Path 113" d="M17.976,31.5a1.486,1.486,0,0,1-2.571,0" transform="translate(-7.01 -15.126)" fill="none" stroke="#cbcbcb" stroke-linecap="round" stroke-linejoin="round" stroke-width="2"/>
      <path id="Path_114" data-name="Path 114" d="M27.466,15.715A13.293,13.293,0,0,1,27,12" transform="translate(-12.856 -5.293)" fill="none" stroke="#cbcbcb" stroke-linecap="round" stroke-linejoin="round" stroke-width="2"/>
      <path id="Path_115" data-name="Path 115" d="M6.922,9.39a4.368,4.368,0,0,0-.193,1.295c0,5.21-2.229,6.7-2.229,6.7H14.9" transform="translate(-1.514 -3.982)" fill="none" stroke="#cbcbcb" stroke-linecap="round" stroke-linejoin="round" stroke-width="2"/>
      <path id="Path_116" data-name="Path 116" d="M19.938,7.452a4.458,4.458,0,0,0-6.933-3.715" transform="translate(-5.798 -0.75)" fill="none" stroke="#cbcbcb" stroke-linecap="round" stroke-linejoin="round" stroke-width="2"/>
      <path id="Path_117" data-name="Path 117" d="M1.5,1.5,17.86,17.86" transform="translate(0 0)" fill="none" stroke="#cbcbcb" stroke-linecap="round" stroke-linejoin="round" stroke-width="2"/>
    </g>
  </g>
</svg>
