<svg xmlns="http://www.w3.org/2000/svg" width="52.234" height="53.898" viewBox="0 0 52.234 53.898">
  <path id="cart-icon" d="M18.061,38.21H42.466a3.871,3.871,0,0,0,3.624-2.47l5.341-13.6a3.893,3.893,0,0,0-3.624-5.316H46.324l-1.87-9.849a2.339,2.339,0,0,0-2.3-1.9h-.094V4.068a4.067,4.067,0,1,0-8.135,0V5.074h-.094a2.339,2.339,0,0,0-2.3,1.9l-.552,2.9-.552-2.905a2.339,2.339,0,0,0-2.3-1.9h-.094V4.068a4.067,4.067,0,1,0-8.135,0V5.074h-.094a2.339,2.339,0,0,0-2.3,1.9l-1.87,9.849H11.676l-.784-3.44a3.873,3.873,0,0,0-2.505-2.809L1.035,7.99A.779.779,0,1,0,.518,9.459l7.353,2.584a2.323,2.323,0,0,1,1.5,1.685l.922,4.046h0l4.615,20.1a4.667,4.667,0,0,0,2.782,8.1,4.36,4.36,0,1,0,6.66.016H34.811a4.361,4.361,0,1,0,6.673,0h4.853a.779.779,0,1,0,0-1.557H18.061a3.113,3.113,0,0,1,0-6.226Zm20.086,7.783a2.8,2.8,0,1,1-2.8,2.8A2.8,2.8,0,0,1,38.147,45.994Zm-17.131,0a2.8,2.8,0,1,1-2.8,2.8,2.8,2.8,0,0,1,2.8-2.8ZM35.488,4.068a2.51,2.51,0,0,1,5.02,0V5.074h-5.02Zm-2.417,3.2a.78.78,0,0,1,.765-.634h.094V8.967a.779.779,0,0,0,1.557,0V6.632h5.02V8.967a.779.779,0,0,0,1.557,0V6.632h.094a.78.78,0,0,1,.765.633l1.815,9.558H32.308l-.526-2.77Zm-11.6-3.2a2.51,2.51,0,1,1,5.02,0V5.074h-5.02Zm-2.417,3.2a.78.78,0,0,1,.765-.634h.094V8.967a.779.779,0,0,0,1.557,0V6.632h5.02V8.967a.779.779,0,0,0,1.557,0V6.632h.094a.78.78,0,0,1,.765.633l1.319,6.945,0,.01.494,2.6H17.24ZM12.033,18.38H47.807a2.336,2.336,0,0,1,2.174,3.19l-5.341,13.6a2.323,2.323,0,0,1-2.174,1.482h-24.4A4.644,4.644,0,0,0,16.307,37Z" transform="translate(0.255 0.249)" fill="#6fa5cb" stroke="#6fa5cb" stroke-width="0.5"/>
</svg>
