<svg xmlns="http://www.w3.org/2000/svg" width="30.031" height="30.031" viewBox="0 0 30.031 30.031">
  <g id="clock-icon" transform="translate(-2 -2)">
    <path id="Path_53" data-name="Path 53" d="M17.015,2A15.015,15.015,0,1,0,32.031,17.015,15.015,15.015,0,0,0,17.015,2Zm0,27.028A12.012,12.012,0,1,1,29.028,17.015,12.012,12.012,0,0,1,17.015,29.028Z" transform="translate(0 0)" fill="#6fa5cb"/>
    <path id="Path_54" data-name="Path 54" d="M17.006,13.508H14V7.5a1.5,1.5,0,0,0-3,0v7.508a1.5,1.5,0,0,0,1.5,1.5h4.5a1.5,1.5,0,0,0,0-3Z" transform="translate(4.514 2.006)" fill="#6fa5cb"/>
  </g>
</svg>
