<svg xmlns="http://www.w3.org/2000/svg" width="37.827" height="17.745" viewBox="0 0 37.827 17.745">
  <path id="Path_120" data-name="Path 120" d="M18.778,9c-.269,0-.551.047-.814.075C7.979,9.569.183,17.429.183,17.429a.615.615,0,0,0,0,.851s7.795,7.932,17.78,8.429c.323.015.635.037.962.037q.444,0,.887-.037c10.022-.461,17.856-8.429,17.856-8.429a.615.615,0,0,0,0-.851S29.375,9,18.925,9Zm.111,1.183h.148c.209,0,.42.028.628.037.024,0,.05,0,.075,0a7.692,7.692,0,0,1-.075,15.305c-.247.024-.485.035-.739.037-.278,0-.539-.025-.814-.037A7.683,7.683,0,0,1,18,10.256,7.561,7.561,0,0,1,18.889,10.183Zm-5.619.851a8.919,8.919,0,0,0,0,13.716A30.166,30.166,0,0,1,1.551,17.872,30.194,30.194,0,0,1,13.27,11.034Zm11.275,0A30.262,30.262,0,0,1,36.3,17.872a30.218,30.218,0,0,1-11.757,6.877,8.855,8.855,0,0,0,0-13.716Zm-6.308.368A5.3,5.3,0,0,0,13.1,15.32a.6.6,0,1,0,1.145.334,4.127,4.127,0,0,1,3.993-3.069.592.592,0,1,0,0-1.183Zm.688,2.922a3.549,3.549,0,1,0,3.549,3.549A3.559,3.559,0,0,0,18.925,14.323Zm0,1.183a2.366,2.366,0,1,1-2.366,2.366A2.357,2.357,0,0,1,18.925,15.506Z" transform="translate(-0.013 -9)"/>
</svg>
