<svg xmlns="http://www.w3.org/2000/svg" width="50.337" height="53.66" viewBox="0 0 50.337 53.66">
  <path id="sales-icon" d="M33.394,14.951H31.733a1.661,1.661,0,0,1-1.661-1.661.831.831,0,0,0-1.661,0,3.323,3.323,0,0,0,3.323,3.322v.831a.831.831,0,1,0,1.661,0v-.831a3.322,3.322,0,0,0,0-6.645H31.733a1.661,1.661,0,0,1,0-3.322h1.661a1.661,1.661,0,0,1,1.661,1.661.831.831,0,1,0,1.661,0,3.322,3.322,0,0,0-3.322-3.322V4.153a.831.831,0,1,0-1.661,0v.831a3.322,3.322,0,1,0,0,6.645h1.661a1.661,1.661,0,0,1,0,3.323ZM32.564,21.6a10.8,10.8,0,1,0-10.8-10.8,10.8,10.8,0,0,0,10.8,10.8Zm0-19.935A9.137,9.137,0,1,1,23.427,10.8a9.137,9.137,0,0,1,9.137-9.137ZM50.816,15.679a.759.759,0,0,0-.136-.357.034.034,0,0,0-.013-.027l-.012-.012a.812.812,0,0,0-.234-.206h0a.809.809,0,0,0-.414-.126H45.023a.831.831,0,1,0,0,1.661h2.542L32.58,28.015,19.8,17.629a.831.831,0,0,0-1.081.03L1.332,33.441A.831.831,0,1,0,2.449,34.67l16.85-15.3L32.034,29.716a.831.831,0,0,0,1.027.017L49.176,17.475v3.291a.831.831,0,1,0,1.661,0V15.782a.774.774,0,0,0-.022-.1ZM35.056,33.225H30.072a2.492,2.492,0,0,0-2.492,2.492V52.329a.831.831,0,0,0,.831.831h8.306a.831.831,0,0,0,.831-.831V35.717A2.492,2.492,0,0,0,35.056,33.225ZM35.886,51.5H29.241V35.717a.831.831,0,0,1,.831-.831h4.984a.831.831,0,0,1,.831.831ZM21.766,26.58H16.782a2.492,2.492,0,0,0-2.492,2.492V52.329a.831.831,0,0,0,.831.831h8.306a.831.831,0,0,0,.831-.831V29.072A2.492,2.492,0,0,0,21.766,26.58ZM22.6,51.5H15.951V29.072a.831.831,0,0,1,.831-.831h4.984a.831.831,0,0,1,.831.831ZM8.476,38.209H3.492A2.492,2.492,0,0,0,1,40.7V52.329a.831.831,0,0,0,.831.831h8.306a.831.831,0,0,0,.831-.831V40.7A2.492,2.492,0,0,0,8.476,38.209ZM9.306,51.5H2.661V40.7a.831.831,0,0,1,.831-.831H8.476a.831.831,0,0,1,.831.831ZM48.346,26.58H43.362a2.492,2.492,0,0,0-2.492,2.492V52.329a.831.831,0,0,0,.831.831h8.306a.831.831,0,0,0,.831-.831V29.072a2.492,2.492,0,0,0-2.492-2.492ZM49.176,51.5H42.531V29.072a.831.831,0,0,1,.831-.831h4.984a.831.831,0,0,1,.831.831Z" transform="translate(-0.75 0.25)" fill="#6fa5cb" stroke="#6fa5cb" stroke-width="0.5"/>
</svg>
