<svg xmlns="http://www.w3.org/2000/svg" width="46.716" height="53.855" viewBox="0 0 46.716 53.855">
  <path id="wallet-icon" d="M52.557,10.5h3.687v3.687a.779.779,0,1,0,1.558,0V10.5h3.583a.779.779,0,1,0,0-1.558H57.8V5.357a.779.779,0,1,0-1.558,0V8.94H52.557a.779.779,0,1,0,0,1.558ZM75.821,21.506H73.484V16.054a3.9,3.9,0,0,0-3.895-3.895H66.318a9.607,9.607,0,1,0-18.59,0H38.952A5.452,5.452,0,0,0,33.5,17.612V46.276a7.018,7.018,0,0,0,7.01,7.01H75.821a3.9,3.9,0,0,0,3.895-3.895V25.4a3.9,3.9,0,0,0-3.895-3.895ZM57.023,1.67A8.059,8.059,0,0,1,64.543,12.6a.772.772,0,0,0-.047.124,8.014,8.014,0,0,1-3.709,4.107H53.26a8.014,8.014,0,0,1-3.709-4.107A.772.772,0,0,0,49.5,12.6,8.059,8.059,0,0,1,57.023,1.67ZM36.2,14.858a3.869,3.869,0,0,1,2.754-1.141h9.329a9.523,9.523,0,0,0,2.281,3.116H45.184a.779.779,0,0,0,0,1.558H68.759a.779.779,0,1,0,0-1.558H63.485a9.524,9.524,0,0,0,2.281-3.116H69.59a2.339,2.339,0,0,1,2.337,2.337v5.452H38.952A3.895,3.895,0,0,1,36.2,14.858ZM78.158,41.239H69.642a3.843,3.843,0,0,1,0-7.685h8.516Zm0-9.243H69.642a5.4,5.4,0,0,0,0,10.8h8.516v6.595a2.339,2.339,0,0,1-2.337,2.337H40.51a5.459,5.459,0,0,1-5.452-5.452V21.422a5.435,5.435,0,0,0,3.895,1.642H75.821A2.339,2.339,0,0,1,78.158,25.4Zm-9.243,5.4a.779.779,0,1,0,.779-.779A.779.779,0,0,0,68.915,37.4Z" transform="translate(-33.25 0.319)" fill="#6fa5cb" stroke="#6fa5cb" stroke-width="0.5"/>
</svg>
