<svg xmlns="http://www.w3.org/2000/svg" width="32" height="32" viewBox="0 0 32 32">
  <g id="settings" transform="translate(-0.5 -0.5)">
    <path id="Path_6" data-name="Path 6" d="M22.5,18A4.5,4.5,0,1,1,18,13.5,4.5,4.5,0,0,1,22.5,18Z" transform="translate(-1.5 -1.5)" fill="none" stroke="#fff" stroke-linecap="round" stroke-linejoin="round" stroke-width="2"/>
    <path id="Path_7" data-name="Path 7" d="M26.591,20.591a2.25,2.25,0,0,0,.45,2.482l.082.082a2.729,2.729,0,1,1-3.859,3.859l-.082-.082a2.268,2.268,0,0,0-3.845,1.609v.232a2.727,2.727,0,1,1-5.455,0V28.65a2.25,2.25,0,0,0-1.473-2.059,2.25,2.25,0,0,0-2.482.45l-.082.082a2.729,2.729,0,1,1-3.859-3.859l.082-.082a2.268,2.268,0,0,0-1.609-3.845H4.227a2.727,2.727,0,1,1,0-5.455H4.35a2.25,2.25,0,0,0,2.059-1.473,2.25,2.25,0,0,0-.45-2.482l-.082-.082A2.729,2.729,0,1,1,9.736,5.986l.082.082a2.25,2.25,0,0,0,2.482.45h.109a2.25,2.25,0,0,0,1.364-2.059V4.227a2.727,2.727,0,0,1,5.455,0V4.35a2.268,2.268,0,0,0,3.845,1.609l.082-.082a2.729,2.729,0,1,1,3.859,3.859l-.082.082a2.25,2.25,0,0,0-.45,2.482v.109a2.25,2.25,0,0,0,2.059,1.364h.232a2.727,2.727,0,1,1,0,5.455H28.65a2.25,2.25,0,0,0-2.059,1.364Z" transform="translate(0)" fill="none" stroke="#fff" stroke-linecap="round" stroke-linejoin="round" stroke-width="2"/>
  </g>
</svg>
