<svg xmlns="http://www.w3.org/2000/svg" xmlns:xlink="http://www.w3.org/1999/xlink" width="50" height="50" viewBox="0 0 50 50">
  <defs>
    <clipPath id="clip-path">
      <rect id="Rectangle_382" data-name="Rectangle 382" width="50" height="50" fill="#fff"/>
    </clipPath>
  </defs>
  <g id="Group_121" data-name="Group 121" clip-path="url(#clip-path)">
    <path id="Path_87" data-name="Path 87" d="M8.1,42.6c-.381,0-.583-.08-.727-.3v-.262l.076-.1a4.268,4.268,0,0,1,.324-.384c3.43-3.435,12.573-12.575,12.573-12.575.238-.239.416-.354.542-.354s.3.113.532.347L34.092,41.647c.283.283.343.414.281.611a.441.441,0,0,1-.41.33l-8.819,0q-8.523,0-17.047.009m.934-.93H32.714L20.872,29.828Z" fill="#fff"/>
    <path id="Path_88" data-name="Path 88" d="M20.885,21.365c-.126,0-.312-.125-.568-.381L7.77,8.435a3.971,3.971,0,0,1-.318-.376l-.082-.1V7.746L7.715,7.4H34.1l.089.072a.486.486,0,0,1,.206.316.5.5,0,0,1-.119.361,2.129,2.129,0,0,1-.2.214L21.442,20.992c-.251.251-.432.373-.557.373m-.051-1.244,11.79-11.8H9.04Z" fill="#fff"/>
    <path id="Path_89" data-name="Path 89" d="M35.865,39.34c-.6,0-.74-.136-.741-.722l0-.84c0-1.179-.007-2.359.014-3.537a1.175,1.175,0,0,1,.2-.621.232.232,0,0,1,.207-.092.549.549,0,0,1,.212.046.448.448,0,0,1,.278.474v3.315l.443.29.288-.2.351-.415c.257-.3.514-.6.755-.917a17.96,17.96,0,0,0,3.585-8.426,18.158,18.158,0,0,0-2.793-12.731A17.933,17.933,0,0,0,35.832,11.6c-.235-.219-.309-.346-.293-.5a.407.407,0,0,1,.275-.387.534.534,0,0,1,.181-.036.475.475,0,0,1,.332.153l.279.275c.377.368.755.737,1.1,1.133a19.134,19.134,0,0,1,4.458,8.933c.1.48.157.966.218,1.452.035.284.07.567.112.848a1.025,1.025,0,0,0,.125.338l.008,2.359a.815.815,0,0,0-.132.353,19.282,19.282,0,0,1-4.591,11.011l-.71.9h3.156c.4,0,.5.17.545.35a.423.423,0,0,1-.042.337.406.406,0,0,1-.268.185,1.889,1.889,0,0,1-.375.041l-2.392,0Z" fill="#fff"/>
    <path id="Path_90" data-name="Path 90" d="M8.358,25.422c-.221,0-.442,0-.663-.008-.12,0-.2-.085-.325-.3v-.238a.647.647,0,0,1,.653-.341c.177.006.291.008.4.008l.578,0c.125,0,.249,0,.374.008.368.018.455.193.492.362a.4.4,0,0,1-.194.463.357.357,0,0,1-.089.042l-.166,0c-.354.006-.709.011-1.064.011" fill="#fff"/>
    <path id="Path_91" data-name="Path 91" d="M13.941,25.455c-.36,0-.472-.137-.533-.268-.03-.065-.12-.286.013-.4a1.159,1.159,0,0,1,.572-.24,4.116,4.116,0,0,1,.5-.026s.653.014.787.014l.836,0c.172,0,.343,0,.515.01a.477.477,0,0,1,.516.377.41.41,0,0,1-.2.443.952.952,0,0,1-.384.089c-.447.007-.894.009-1.342.009Z" fill="#fff"/>
    <path id="Path_92" data-name="Path 92" d="M22.488,25.457l-.836,0c-.171,0-.343,0-.515-.01a.5.5,0,0,1-.5-.329.416.416,0,0,1,.188-.486.749.749,0,0,1,.323-.092q.729-.012,1.451-.011.636,0,1.272.007c.39,0,.471.2.5.281.019.047.107.285-.017.384a1.205,1.205,0,0,1-.583.24,4.165,4.165,0,0,1-.5.025Z" fill="#fff"/>
    <path id="Path_93" data-name="Path 93" d="M29.558,25.46q-.6,0-1.2-.014a.442.442,0,0,1-.472-.4.4.4,0,0,1,.207-.409,1.217,1.217,0,0,1,.434-.09c.18-.008.36-.01.54-.01h1.58c.17,0,.339,0,.509.01a.464.464,0,0,1,.51.39.412.412,0,0,1-.2.428.625.625,0,0,1-.254.086c-.55.007-1.1.014-1.652.014" fill="#fff"/>
    <path id="Path_94" data-name="Path 94" d="M36.1,25.463a5.222,5.222,0,0,1-.647-.06.385.385,0,0,1-.312-.41c0-.038.011-.374.287-.394.322-.024.649-.035.975-.035s.638.011.956.034c.277.018.29.354.29.392a.383.383,0,0,1-.34.42,5.211,5.211,0,0,1-.632.054l-.3.016Z" fill="#fff"/>
  </g>
</svg>
