<svg xmlns="http://www.w3.org/2000/svg" xmlns:xlink="http://www.w3.org/1999/xlink" width="50" height="50" viewBox="0 0 50 50">
  <defs>
    <clipPath id="clip-path">
      <rect id="Rectangle_581" data-name="Rectangle 581" width="50" height="50" fill="#fff"/>
    </clipPath>
  </defs>
  <g id="Group_433" data-name="Group 433" clip-path="url(#clip-path)">
    <g id="Group_469" data-name="Group 469" transform="translate(0.788 2.005)">
      <path id="Path_176" data-name="Path 176" d="M21.6,44.862a.5.5,0,0,1,0-.72.509.509,0,0,1,.72.72.5.5,0,0,1-.36.149A.493.493,0,0,1,21.6,44.862Zm1.441-1.441a.5.5,0,0,1,0-.72.509.509,0,0,1,.72.72.5.5,0,0,1-.36.15.493.493,0,0,1-.36-.15Zm1.441-1.441a.509.509,0,1,1,.72,0,.509.509,0,0,1-.72,0Zm-5.769,1.012a.512.512,0,1,1,.727,0,.534.534,0,0,1-.727,0Zm1.447-1.447a.5.5,0,0,1,0-.72.509.509,0,0,1,.72.72.5.5,0,0,1-.36.149.482.482,0,0,1-.36-.149ZM21.6,40.105a.5.5,0,0,1,0-.72.509.509,0,0,1,.72.72.5.5,0,0,1-.36.15.493.493,0,0,1-.36-.149Zm1.441-1.441a.509.509,0,1,1,.72,0,.5.5,0,0,1-.36.149.493.493,0,0,1-.36-.149Zm1.441-1.441a.509.509,0,1,1,.72,0,.509.509,0,0,1-.72,0Zm-8.65,3.894a.512.512,0,0,1,0-.72.5.5,0,0,1,.72,0,.512.512,0,0,1,0,.72.521.521,0,0,1-.36.149.533.533,0,0,1-.36-.149Zm1.441-1.441a.512.512,0,0,1,0-.72.509.509,0,1,1,.72.72.522.522,0,0,1-.36.149.533.533,0,0,1-.36-.149Zm1.441-1.441a.512.512,0,1,1,.727,0,.534.534,0,0,1-.727,0ZM20.156,36.8a.512.512,0,1,1,.72-.727.506.506,0,0,1-.36.87.5.5,0,0,1-.36-.143ZM21.6,35.349a.509.509,0,1,1,.72,0,.5.5,0,0,1-.36.149.493.493,0,0,1-.36-.149Zm1.441-1.441a.509.509,0,1,1,.72,0,.5.5,0,0,1-.36.15.493.493,0,0,1-.36-.15Zm1.441-1.441a.509.509,0,1,1,.72,0,.509.509,0,0,1-.72,0ZM12.946,39.242a.509.509,0,1,1,.72,0,.509.509,0,0,1-.72,0ZM14.387,37.8a.509.509,0,1,1,.72,0,.509.509,0,0,1-.72,0Zm1.441-1.441a.512.512,0,0,1,0-.72.509.509,0,1,1,.72.72.521.521,0,0,1-.36.149.533.533,0,0,1-.36-.149Zm1.441-1.441a.512.512,0,0,1,0-.72.509.509,0,1,1,.72.72.51.51,0,0,1-.36.149A.533.533,0,0,1,17.268,34.92Zm1.441-1.441a.514.514,0,1,1,.727,0,.534.534,0,0,1-.727,0Zm1.447-1.447a.5.5,0,0,1,0-.72.509.509,0,1,1,.72.72.5.5,0,0,1-.36.149A.482.482,0,0,1,20.156,32.033ZM21.6,30.592a.5.5,0,0,1,0-.72.509.509,0,1,1,.72.72.5.5,0,0,1-.36.149.482.482,0,0,1-.36-.149Zm1.441-1.441a.509.509,0,1,1,.72,0,.5.5,0,0,1-.36.149.493.493,0,0,1-.36-.149Zm1.441-1.441a.509.509,0,1,1,.72,0,.509.509,0,0,1-.72,0Zm-14.154,9.4a.509.509,0,1,1,.72,0,.509.509,0,0,1-.72,0Zm1.441-1.441a.509.509,0,1,1,.72,0,.509.509,0,0,1-.72,0ZM13.2,34.227a.512.512,0,0,1,0-.72.5.5,0,0,1,.72,0,.512.512,0,0,1,0,.72.522.522,0,0,1-.36.15.533.533,0,0,1-.36-.15Zm1.441-1.441a.512.512,0,0,1,0-.72.509.509,0,1,1,.72.72.51.51,0,0,1-.36.149.534.534,0,0,1-.36-.149Zm1.441-1.441a.514.514,0,1,1,.727,0,.534.534,0,0,1-.727,0ZM17.533,29.9a.5.5,0,0,1,0-.72.509.509,0,1,1,.72.72.5.5,0,0,1-.36.149A.482.482,0,0,1,17.533,29.9Zm1.441-1.441a.5.5,0,0,1,0-.72.509.509,0,1,1,.72.72.5.5,0,0,1-.36.149.482.482,0,0,1-.36-.149Zm1.441-1.441a.509.509,0,1,1,.72,0,.5.5,0,0,1-.36.149A.493.493,0,0,1,20.414,27.018Zm1.441-1.441a.509.509,0,1,1,.72,0,.509.509,0,0,1-.72,0ZM10.147,32.529a.512.512,0,0,1,0-.72.5.5,0,0,1,.72,0,.512.512,0,0,1,0,.72.522.522,0,0,1-.36.149A.533.533,0,0,1,10.147,32.529Zm1.441-1.441a.512.512,0,0,1,0-.72.509.509,0,1,1,.72.72.523.523,0,0,1-.36.149A.534.534,0,0,1,11.587,31.088Zm1.441-1.441a.514.514,0,1,1,.727,0,.517.517,0,0,1-.727,0ZM14.469,28.2a.512.512,0,0,1,0-.72.521.521,0,0,1,.727,0,.513.513,0,0,1,0,.72.517.517,0,0,1-.727,0Zm1.447-1.441a.509.509,0,1,1,.72,0,.5.5,0,0,1-.36.149.493.493,0,0,1-.36-.149Zm1.441-1.441a.509.509,0,1,1,.72,0,.5.5,0,0,1-.36.149.493.493,0,0,1-.36-.149ZM18.8,23.878a.509.509,0,1,1,.72,0,.509.509,0,0,1-.72,0ZM9.97,27.942a.509.509,0,1,1,.72-.72.5.5,0,0,1,0,.72.481.481,0,0,1-.36.149.5.5,0,0,1-.36-.149ZM11.417,26.5a.5.5,0,0,1,0-.72.509.509,0,1,1,.72.72.5.5,0,0,1-.36.149A.482.482,0,0,1,11.417,26.5Zm1.441-1.441a.5.5,0,0,1,0-.72.509.509,0,1,1,.72.72.5.5,0,0,1-.36.149.493.493,0,0,1-.36-.149ZM14.3,23.62a.509.509,0,1,1,.72,0,.5.5,0,0,1-.36.149.493.493,0,0,1-.36-.149Zm1.441-1.441a.509.509,0,1,1,.72,0,.509.509,0,0,1-.72,0ZM9.8,23.362a.509.509,0,1,1,.72,0,.5.5,0,0,1-.36.149.493.493,0,0,1-.36-.149Zm1.441-1.441a.509.509,0,1,1,.72,0,.5.5,0,0,1-.36.149A.493.493,0,0,1,11.241,21.921Zm1.441-1.441a.509.509,0,1,1,.72,0,.509.509,0,0,1-.72,0Z" transform="translate(-0.289 -4.924)" fill="#fff"/>
      <path id="Path_177" data-name="Path 177" d="M24.549,22.257a.509.509,0,0,1-.247-.064L9.012,13.7a.51.51,0,0,1,0-.892L24.3,4.314a.51.51,0,0,1,.495,0l15.289,8.494a.51.51,0,0,1,0,.892L24.8,22.193a.509.509,0,0,1-.247.064Zm-14.24-9,14.24,7.911,14.24-7.911L24.549,5.343Zm14.24,28.71A.509.509,0,0,1,24.3,41.9L9.012,33.405a.51.51,0,1,1,.495-.892l15.042,8.357,15.042-8.357a.51.51,0,0,1,.495.892L24.8,41.9a.509.509,0,0,1-.247.064Z" transform="translate(0 0)" fill="#fff"/>
      <path id="Path_178" data-name="Path 178" d="M47.049,42.763A.508.508,0,0,1,46.8,42.7l-1.033-.574a.51.51,0,0,1,.495-.891l1.033.574a.51.51,0,0,1-.247.955ZM44.234,41.2a.508.508,0,0,1-.247-.065l-1.782-.99a.51.51,0,1,1,.495-.891l1.782.99a.51.51,0,0,1-.248.955Zm-3.564-1.98a.508.508,0,0,1-.247-.065l-1.782-.99a.51.51,0,0,1,.5-.891l1.782.99a.51.51,0,0,1-.248.955Zm-3.564-1.98a.508.508,0,0,1-.247-.065l-1.782-.989a.51.51,0,0,1,.495-.892l1.782.99a.51.51,0,0,1-.247.955Zm-3.564-1.98a.508.508,0,0,1-.247-.064l-1.782-.99a.51.51,0,1,1,.495-.892l1.782.99a.51.51,0,0,1-.248.955Z" transform="translate(-7.211 -9.294)" fill="#fff"/>
      <path id="Path_179" data-name="Path 179" d="M24.549,45.969a.51.51,0,0,1-.51-.51V25.754a.51.51,0,1,1,1.019,0V45.46A.51.51,0,0,1,24.549,45.969Zm15.289-8.494a.51.51,0,0,1-.51-.51V17.26a.51.51,0,0,1,1.019,0V36.966a.51.51,0,0,1-.51.51Zm-30.578,0a.51.51,0,0,1-.51-.51V17.26a.51.51,0,0,1,1.019,0V36.966A.51.51,0,0,1,9.26,37.475Z" transform="translate(0 -4.006)" fill="#fff"/>
    </g>
  </g>
</svg>
