<svg xmlns="http://www.w3.org/2000/svg" xmlns:xlink="http://www.w3.org/1999/xlink" width="50" height="50" viewBox="0 0 50 50">
  <defs>
    <clipPath id="clip-path">
      <rect id="Rectangle_376" data-name="Rectangle 376" width="50" height="50" fill="#fff"/>
    </clipPath>
  </defs>
  <g id="Group_115" data-name="Group 115" clip-path="url(#clip-path)">
    <path id="Path_74" data-name="Path 74" d="M27.085,27.879a6.655,6.655,0,0,0-4.13-.015c1.754,3.613,1.215,6.764-1.969,9.261a7.577,7.577,0,0,1-8.567.345A7.027,7.027,0,0,1,9.106,30.3c-.319-.155-.655-.314-.984-.482a1.894,1.894,0,0,1-1.028-2.336q2.177-7.3,4.37-14.59a2.058,2.058,0,0,1,1.9-1.512,1.964,1.964,0,0,1,2,1.292,4.352,4.352,0,0,1,.128,1.509c-.007.151-.308.369-.505.41-.3.063-.507-.161-.566-.457a3.576,3.576,0,0,1-.021-.605.942.942,0,0,0-1.86-.283c-.465,1.534-.92,3.07-1.378,4.606q-1.432,4.8-2.863,9.6c-.278.929-.2,1.089.673,1.508.133.063.268.122.391.179.314-.551.577-1.116.932-1.615a7.657,7.657,0,0,1,11.575-.917.611.611,0,0,0,.749.189,7.4,7.4,0,0,1,4.808,0,.559.559,0,0,0,.688-.153A7.656,7.656,0,0,1,39.9,27.784c.275.428.487.9.741,1.372.238-.115.482-.227.719-.35A.773.773,0,0,0,41.8,27.74q-1.686-5.652-3.377-11.3c-.32-1.071-.632-2.144-.96-3.212a.958.958,0,0,0-1.041-.714.948.948,0,0,0-.81,1c0,.068,0,.135,0,.2,0,.6-.193.892-.582.888s-.579-.272-.545-.9a3.506,3.506,0,0,1,.215-1.176,2.014,2.014,0,0,1,2.053-1.15,2.073,2.073,0,0,1,1.785,1.492c.484,1.584.956,3.172,1.431,4.759q1.453,4.859,2.9,9.717a1.921,1.921,0,0,1-1.119,2.53l-.853.42A6.874,6.874,0,0,1,39.9,35.212a7.353,7.353,0,0,1-3.413,2.82,7.738,7.738,0,0,1-8.415-1.7,6.924,6.924,0,0,1-.983-8.454m6.1-2.363a12.29,12.29,0,0,0-1.777.372,5.826,5.826,0,0,0-2.37,9.8,6.565,6.565,0,0,0,9.254-.253A5.69,5.69,0,0,0,38.7,28.05a6.555,6.555,0,0,0-5.518-2.534m-17.052-.005a12.637,12.637,0,0,0-1.815.383A5.827,5.827,0,0,0,11.5,35.2a6.568,6.568,0,0,0,8.98.909,5.722,5.722,0,0,0,1.34-7.777,6.532,6.532,0,0,0-5.7-2.822" fill="#fff"/>
  </g>
</svg>
