<svg xmlns="http://www.w3.org/2000/svg" xmlns:xlink="http://www.w3.org/1999/xlink" width="50" height="50" viewBox="0 0 50 50">
  <defs>
    <clipPath id="clip-path">
      <rect id="Rectangle_379" data-name="Rectangle 379" width="50" height="50" fill="#fff"/>
    </clipPath>
  </defs>
  <g id="Group_118" data-name="Group 118" clip-path="url(#clip-path)">
    <path id="Path_81" data-name="Path 81" d="M33.763,32.257a7.265,7.265,0,0,1-7-6.5l-.027-.221h-3.5l-.028.218a7.251,7.251,0,0,1-2.927,5.081,6.961,6.961,0,0,1-4.252,1.419c-.107,0-.214,0-.323-.007a7.281,7.281,0,0,1-6.961-6.519l-.028-.219h-.9c-.365-.011-.584-.2-.583-.514s.221-.5.588-.51h.9l.028-.218a7.287,7.287,0,0,1,3.011-5.164,6.936,6.936,0,0,1,4.145-1.365c.137,0,.275,0,.413.011a7.312,7.312,0,0,1,6.893,6.5l.03.215h3.49l.027-.219a7.24,7.24,0,0,1,2.663-4.881,7.033,7.033,0,0,1,4.554-1.62,7.349,7.349,0,0,1,7.25,6.516l.026.2.2.017c.088.008.179.01.271.01l.219,0c.444,0,.667.058.813.4l-.016.263c-.148.313-.371.368-.8.368h-.221c-.091,0-.18,0-.267.009l-.2.016-.026.2a7.328,7.328,0,0,1-7.255,6.517Zm.244-13.493a6.246,6.246,0,0,0-4.439,10.648,6.175,6.175,0,0,0,4.4,1.826,6.237,6.237,0,0,0,.066-12.474Zm-18,0A6.246,6.246,0,0,0,11.566,29.41a6.17,6.17,0,0,0,4.39,1.828,6.237,6.237,0,0,0,.082-12.474Z" fill="#fff"/>
    <path id="Path_82" data-name="Path 82" d="M30.224,25.509a.508.508,0,0,1-.482-.521v-.126a4.254,4.254,0,0,1,4.129-4.111c.385.008.6.191.627.465a.515.515,0,0,1-.467.53c-2.25.379-2.928,1.057-3.3,3.3a.519.519,0,0,1-.487.465Z" fill="#fff"/>
    <path id="Path_83" data-name="Path 83" d="M12.21,25.509a.516.516,0,0,1-.47-.537v-.165a4.235,4.235,0,0,1,4.115-4.057l.113,0a.5.5,0,0,1,.076.99c-.111.019-.225.033-.337.046a4.089,4.089,0,0,0-.693.126,3.2,3.2,0,0,0-2.248,2.823c-.009.1-.019.2-.034.3a.515.515,0,0,1-.484.475Z" fill="#fff"/>
  </g>
</svg>
