<svg xmlns="http://www.w3.org/2000/svg" xmlns:xlink="http://www.w3.org/1999/xlink" width="50" height="50" viewBox="0 0 50 50">
  <defs>
    <clipPath id="clip-path">
      <rect id="Rectangle_377" data-name="Rectangle 377" width="50" height="50" fill="#fff"/>
    </clipPath>
  </defs>
  <g id="Group_116" data-name="Group 116" clip-path="url(#clip-path)">
    <path id="Path_75" data-name="Path 75" d="M29.185,38.5A13.3,13.3,0,0,1,19.07,33.78a5.005,5.005,0,0,0-.516-.469c-.1-.086-.208-.171-.307-.26a10.731,10.731,0,0,1,.288-16.331,8.069,8.069,0,0,0,.772-.741A13.557,13.557,0,0,1,29.353,11.5a13.612,13.612,0,0,1,13.267,11c.061.332.109.665.158,1l.071.48,0,2.086-.1.615c-.074.462-.148.925-.25,1.382A13.5,13.5,0,0,1,31.752,38.282a15.759,15.759,0,0,1-2.567.218m.177-26.038a12.184,12.184,0,0,0-9.154,4.021l-.124.147.173.085a9.211,9.211,0,0,1-.025,16.61l-.183.088.137.149a12.541,12.541,0,1,0,9.176-21.1M19.349,17.426a.553.553,0,0,0-.4.192c-.115.119-.236.232-.357.347a6.24,6.24,0,0,0-.615.635c-.339.428-.655.874-.973,1.324l-.509.712.157.079a4.438,4.438,0,0,1,2.62,4.269,4.442,4.442,0,0,1-2.551,4.291l-.132.067.065.132a9.926,9.926,0,0,0,2.258,2.906.674.674,0,0,0,.454.2.85.85,0,0,0,.357-.092,8.176,8.176,0,0,0,4.737-8.407,8.02,8.02,0,0,0-4.81-6.576.672.672,0,0,0-.3-.078m-3.232,4.357a9.588,9.588,0,0,0,.01,6.486l.051.15.146-.059a3.6,3.6,0,0,0,2-3.515A3.388,3.388,0,0,0,16.3,21.686l-.134-.034Z" fill="#fff"/>
    <path id="Path_76" data-name="Path 76" d="M12.625,37.884a.608.608,0,0,1-.377-.142A11.593,11.593,0,0,1,9.869,35.1a15.881,15.881,0,0,1-2.4-6.352,21.666,21.666,0,0,1,.547-9.8,13.393,13.393,0,0,1,3.914-6.4l.108-.09c.055-.046.111-.091.162-.14a.584.584,0,0,1,.4-.187.511.511,0,0,1,.211.05c.194.088.269.246.268.567l0,24.383a1.654,1.654,0,0,1-.031.447.414.414,0,0,1-.414.306m-1-23.69c-.078.089-.156.18-.231.271a15.055,15.055,0,0,0-3.123,7.923,21.626,21.626,0,0,0,.062,5.71,15.459,15.459,0,0,0,2.291,6.408c.234.359.5.7.765,1.04.12.152.438.569.438.569L12.015,36l.08-.136V13.691Z" fill="#fff"/>
    <path id="Path_77" data-name="Path 77" d="M37.729,19.052a.642.642,0,0,1-.475-.277,9.778,9.778,0,0,0-5.633-3.563A12.029,12.029,0,0,0,30,15c-.208-.017-.417-.035-.624-.056a.485.485,0,0,1-.5-.5c.007-.279.206-.449.531-.456H29.6a11.025,11.025,0,0,1,8.427,4.224.6.6,0,0,1,.156.44.457.457,0,0,1-.189.3.423.423,0,0,1-.262.094" fill="#fff"/>
    <path id="Path_78" data-name="Path 78" d="M27.433,35.869A11.109,11.109,0,0,1,23,34.022a.483.483,0,0,1-.181-.677.448.448,0,0,1,.379-.224.581.581,0,0,1,.327.114,10.346,10.346,0,0,0,3.513,1.574l.234.05c.114.024.229.047.343.077A.493.493,0,0,1,28,35.4a.487.487,0,0,1-.48.475.455.455,0,0,1-.082-.008" fill="#fff"/>
  </g>
</svg>
