<svg xmlns="http://www.w3.org/2000/svg" xmlns:xlink="http://www.w3.org/1999/xlink" width="50" height="50" viewBox="0 0 50 50">
  <defs>
    <clipPath id="clip-path">
      <rect id="Rectangle_380" data-name="Rectangle 380" width="50" height="50" fill="#fff"/>
    </clipPath>
  </defs>
  <g id="Group_119" data-name="Group 119" clip-path="url(#clip-path)">
    <path id="Path_84" data-name="Path 84" d="M29.294,26.346c-.6,0-1.216-.029-1.833-.088a15.776,15.776,0,0,1-7.5-2.6A10.3,10.3,0,0,1,15.7,18.192a2.195,2.195,0,0,1-.005-1.385,10.3,10.3,0,0,1,4.283-5.491,15.748,15.748,0,0,1,7.262-2.571,19.819,19.819,0,0,1,2.074-.112,16.606,16.606,0,0,1,7.777,1.886,11.144,11.144,0,0,1,5.248,5.292c.138.3.25.613.361.925l.158.434-.009.72c-.088.172-.183.408-.279.643a12.049,12.049,0,0,1-.674,1.481A11.542,11.542,0,0,1,36.6,24.708a16.725,16.725,0,0,1-7.311,1.638M17.569,20.019l.1.151a10.518,10.518,0,0,0,3.877,3.392,16.354,16.354,0,0,0,7.56,1.9,17.685,17.685,0,0,0,5.942-1.078A11.413,11.413,0,0,0,40.6,20.34c.047-.065.089-.132.131-.2l.358-.552-.493.246a7.18,7.18,0,0,0-.642.377c-.107.068-.214.136-.322.2a17.27,17.27,0,0,1-6.721,2.1,28.111,28.111,0,0,1-3.661.241,28.1,28.1,0,0,1-3-.161,17.493,17.493,0,0,1-8.469-2.778ZM28.94,13.153a25.593,25.593,0,0,0-4.259.381.71.71,0,0,0-.39.273,6.132,6.132,0,0,0-.022,7.337.914.914,0,0,0,.512.321c.532.1,1.07.171,1.61.228a26.635,26.635,0,0,0,2.778.147,26.486,26.486,0,0,0,4.363-.365,1.019,1.019,0,0,0,.6-.365,6.137,6.137,0,0,0,.142-7.077,1.324,1.324,0,0,0-1.23-.577l-.269-.007.135.232a1.994,1.994,0,0,1-.872,2.932l-.1.051.022.112A2.816,2.816,0,0,1,31,19.687a2.715,2.715,0,0,1-1.76.671,3.125,3.125,0,0,1-1.123-.223,2.85,2.85,0,0,1,.8-5.484.586.586,0,0,0,.439-.252c.119-.231.217-.472.319-.724l.207-.5-.218-.008q-.363-.014-.728-.013m-6.142.789a11.98,11.98,0,0,0-4.41,2,6.2,6.2,0,0,0-.807.83c-.1.119-.2.238-.311.354a.512.512,0,0,0,0,.734c.087.1.172.2.257.3a6.13,6.13,0,0,0,.7.747,9.843,9.843,0,0,0,3.252,1.726c.274.1.55.18.855.272l.8.248-.155-.314a7.112,7.112,0,0,1-.007-6.689l.148-.3Zm12.58.2a7.111,7.111,0,0,1,0,6.693l-.154.313.789-.243c.3-.089.573-.173.845-.268a8.824,8.824,0,0,0,3.654-2.079c.937-.99.941-1.082.128-2.015l-.1-.111a1.951,1.951,0,0,0-.19-.185,11.882,11.882,0,0,0-4.8-2.316l-.328-.093ZM29.2,15.554a1.953,1.953,0,0,0-1.395.577,1.911,1.911,0,0,0-.566,1.364,1.984,1.984,0,0,0,1.942,1.948,1.945,1.945,0,0,0,1.944-1.936,1.915,1.915,0,0,0-1.912-1.953Zm2.079-1.819a1.014,1.014,0,0,0-.96.714.523.523,0,0,0,.149.482c.235.2.481.375.744.567l.38.281.081-.038a1.023,1.023,0,0,0,.635-1.169,1.074,1.074,0,0,0-.949-.834ZM29.121,9.55a15.7,15.7,0,0,0-7.611,1.88A10.763,10.763,0,0,0,17.542,15l.2.211c.185-.111.362-.222.536-.331.363-.227.709-.444,1.07-.63a19.022,19.022,0,0,1,7.118-1.892c.947-.089,1.89-.134,2.805-.134a26.3,26.3,0,0,1,5.36.54,14.344,14.344,0,0,1,5.862,2.4l.039.029.076.006h.279l-.071-.237a10.075,10.075,0,0,0-2.529-2.624,14.9,14.9,0,0,0-8.064-2.757q-.555-.031-1.1-.032" fill="#fff"/>
    <path id="Path_85" data-name="Path 85" d="M22.671,41.368a13.949,13.949,0,0,1-3.838-.574,16.819,16.819,0,0,1-10.1-7.645,10.446,10.446,0,0,1-1.587-5.518A7.313,7.313,0,0,1,7.9,24.412,1.832,1.832,0,0,1,9.783,23.14c.1,0,.213,0,.328.011a12.019,12.019,0,0,1,3.417.838,41.333,41.333,0,0,1,8.8,4.624,1.439,1.439,0,0,0,.834.276,1.744,1.744,0,0,0,.244-.018,42.575,42.575,0,0,1,6.257-.437c1.114,0,2.289.038,3.492.112a28.1,28.1,0,0,1,6.8,1.1,11.954,11.954,0,0,1,1.657.695,2.308,2.308,0,0,1,1.239,1.312l-.009,1-.054.241c-.037.179-.074.359-.117.538a8.847,8.847,0,0,1-3.784,5.224,14.931,14.931,0,0,1-7.075,2.572,17.618,17.618,0,0,1-2.035.117,19.749,19.749,0,0,1-3.718-.366,1.086,1.086,0,0,0-.214-.02,2.892,2.892,0,0,0-.689.118c-.106.028-.214.055-.318.076a11.483,11.483,0,0,1-2.17.206m18.745-7.735c-3.626,1.469-7.449,1.6-11.145,1.735l-.138.005-.009.17.008.109a1.634,1.634,0,0,0,.075.176,1.925,1.925,0,0,1-.233,2.416,10.516,10.516,0,0,1-2.006,1.8l-.336.228.4.046a17.39,17.39,0,0,0,1.9.108,15.81,15.81,0,0,0,1.605-.081,14.468,14.468,0,0,0,6.184-1.989,8.716,8.716,0,0,0,3.749-4.131c.035-.086.063-.175.094-.274l.146-.444ZM8.23,26.209c-.02.076-.041.158-.057.24a7.925,7.925,0,0,0,.4,4.219,13.564,13.564,0,0,0,4.393,6.039,15.485,15.485,0,0,0,9.661,3.714l.241,0a8.6,8.6,0,0,0,4.792-1.317c.155-.1.3-.214.434-.317l.411-.312-.3-.08c-.311-.084-.622-.162-.934-.238a20.223,20.223,0,0,1-1.955-.556,42.51,42.51,0,0,1-9.471-4.983A34.3,34.3,0,0,1,10.06,27.9c-.375-.4-.721-.825-1.067-1.252-.159-.2-.671-.814-.671-.814Zm1.453-2.14a1.185,1.185,0,0,0-.147.008.7.7,0,0,0-.545.257.709.709,0,0,0,.031.609,2.211,2.211,0,0,0,.349.661c.187.219.371.439.556.661a21.762,21.762,0,0,0,1.735,1.918,42.694,42.694,0,0,0,8.574,6.079,31.346,31.346,0,0,0,6.577,2.859,6.37,6.37,0,0,0,1.777.327,3.242,3.242,0,0,0,.569-.05.611.611,0,0,0,.451-.246.594.594,0,0,0-.006-.491,2.578,2.578,0,0,0-.406-.793c-.169-.2-.336-.406-.5-.61A16.992,16.992,0,0,0,27,33.388a43.478,43.478,0,0,0-14.582-8.813,12.354,12.354,0,0,0-1.686-.427c-.258-.053-.517-.106-.774-.166l-.148-.035-.028.125Zm20.235,5.283c-1.284,0-2.618.051-3.964.151-.35.026-.7.063-1.05.1l-.58.06-.06.21.076.142a29.839,29.839,0,0,1,4.747,4.194.8.8,0,0,0,.55.219l.943-.032c1.275-.043,2.594-.088,3.888-.183a22.026,22.026,0,0,0,5.6-1.068A7.688,7.688,0,0,0,41.6,32.4a.6.6,0,0,0,.343-.487.619.619,0,0,0-.34-.515,5.891,5.891,0,0,0-1.207-.628,21.328,21.328,0,0,0-4.952-1.087,45.955,45.955,0,0,0-5.53-.327" fill="#fff"/>
  </g>
</svg>
