<svg xmlns="http://www.w3.org/2000/svg" xmlns:xlink="http://www.w3.org/1999/xlink" width="50" height="50" viewBox="0 0 50 50">
  <defs>
    <clipPath id="clip-path">
      <rect id="Rectangle_382" data-name="Rectangle 382" width="50" height="50" fill="#fff"/>
    </clipPath>
  </defs>
  <g id="Group_121" data-name="Group 121" clip-path="url(#clip-path)">
    <path id="Path_165" data-name="Path 165" d="M41.685,47.249a1.606,1.606,0,0,1-1.137-.469l-.632-.6a.4.4,0,0,0-.283-.12h-.9a1.612,1.612,0,0,1-1.606-1.606v-.926a.4.4,0,0,0-.12-.283l-.6-.632a1.612,1.612,0,0,1,0-2.274l.6-.6a.391.391,0,0,0,.12-.283v-.926a1.612,1.612,0,0,1,1.606-1.606h.9a.4.4,0,0,0,.283-.12l.632-.632a1.612,1.612,0,0,1,2.274,0l.6.632a.391.391,0,0,0,.283.12h.9a1.612,1.612,0,0,1,1.606,1.606v.9a.391.391,0,0,0,.12.283l.632.6a1.612,1.612,0,0,1,0,2.274l-.632.632a.4.4,0,0,0-.12.283v.926A1.612,1.612,0,0,1,44.6,46.028h-.866a.391.391,0,0,0-.283.12l-.6.6A1.606,1.606,0,0,1,41.685,47.249Zm-2.948-9.125a.4.4,0,0,0-.4.4v.9a1.618,1.618,0,0,1-.469,1.137l-.638.6a.409.409,0,0,0,0,.6l.638.6a1.594,1.594,0,0,1,.469,1.131v.926a.4.4,0,0,0,.4.4h.9a1.576,1.576,0,0,1,1.131.475l.626.632a.409.409,0,0,0,.565,0l.638-.632a1.576,1.576,0,0,1,1.131-.475h.9a.4.4,0,0,0,.4-.4v-.9a1.594,1.594,0,0,1,.469-1.131l.638-.6a.409.409,0,0,0,0-.6l-.638-.6a1.618,1.618,0,0,1-.469-1.137v-.926a.4.4,0,0,0-.4-.4h-.884a1.618,1.618,0,0,1-1.143-.439l-.6-.662a.4.4,0,0,0-.565,0l-.638.662a1.594,1.594,0,0,1-1.131.469Z" transform="translate(-8.555 -8.346)" fill="#f9f9fb"/>
    <path id="Path_166" data-name="Path 166" d="M39.666,58.147h0a.6.6,0,0,1-.547-.367l-.6-1.371-1.371.535a.6.6,0,0,1-.758-.806l2.153-4.927a.6.6,0,1,1,1.1.481L38.072,55.3l.6-.223a.6.6,0,0,1,.764.331l.253.6L41.254,52.4a.6.6,0,1,1,1.1.481l-2.123,4.872A.6.6,0,0,1,39.666,58.147Z" transform="translate(-8.714 -14.371)" fill="#f9f9fb"/>
    <path id="Path_167" data-name="Path 167" d="M43.52,38.3a.6.6,0,0,1-.553-.361l-2.129-4.872a.6.6,0,0,1,1.107-.481l1.564,3.609.253-.6a.6.6,0,0,1,.758-.331l.6.223-1.576-3.609a.6.6,0,0,1,1.107-.481l2.135,4.9a.6.6,0,0,1-.746.8l-1.384-.535-.6,1.371a.6.6,0,0,1-.547.367Zm-3.711-7.688a.6.6,0,0,1-.59-.716l.241-1.4-1.017-.987a.6.6,0,0,1,.337-1.023l1.4-.2.6-1.269a.6.6,0,0,1,1.083,0l.6,1.269,1.4.2a.6.6,0,0,1,.337,1.023l-1.017.987.241,1.4a.589.589,0,0,1-.842.644l-1.233-.662-1.251.662A.6.6,0,0,1,39.808,30.607ZM41.342,28.6a.674.674,0,0,1,.307.072l.451.241-.09-.505a.6.6,0,0,1,.174-.529l.367-.355-.529-.054a.6.6,0,0,1-.451-.325l-.229-.463-.229.463a.6.6,0,0,1-.451.325l-.505.078.367.355a.6.6,0,0,1,.174.529l-.09.505.439-.265a.674.674,0,0,1,.295-.072ZM42.419,8.94H38.142A3.068,3.068,0,0,1,35.08,5.878V1.6a.6.6,0,1,1,1.2,0V5.878a1.859,1.859,0,0,0,1.859,1.859h4.277a.6.6,0,0,1,0,1.2Z" transform="translate(-8.212 5.481)" fill="#f9f9fb"/>
    <path id="Path_168" data-name="Path 168" d="M24.387,30.042H11.972A3.062,3.062,0,0,1,8.91,26.98V4.062A3.062,3.062,0,0,1,11.972,1H25.254a.6.6,0,0,1,.427.174l6.743,6.743a.6.6,0,0,1,.174.421V21.025a.6.6,0,1,1-1.2,0V8.591L25.007,2.2H11.972a1.865,1.865,0,0,0-1.859,1.859V26.98a1.859,1.859,0,0,0,1.859,1.859H24.387a.6.6,0,0,1,0,1.2Z" transform="translate(2.216 5.481)" fill="#f9f9fb"/>
    <path id="Path_169" data-name="Path 169" d="M30.921,19.563H15.282a.6.6,0,0,1,0-1.2h15.64a.6.6,0,0,1,0,1.2Zm0,4.06H15.282a.6.6,0,0,1,0-1.2h15.64a.6.6,0,0,1,0,1.2Zm0,4.06H15.282a.6.6,0,0,1,0-1.2h15.64a.6.6,0,0,1,0,1.2Z" transform="translate(-0.083 -1.437)" fill="#f9f9fb"/>
  </g>
</svg>
