<svg xmlns="http://www.w3.org/2000/svg" xmlns:xlink="http://www.w3.org/1999/xlink" width="50" height="50" viewBox="0 0 50 50">
  <defs>
    <clipPath id="clip-path">
      <rect id="Rectangle_378" data-name="Rectangle 378" width="50" height="50" fill="#fff"/>
    </clipPath>
  </defs>
  <g id="Group_117" data-name="Group 117" clip-path="url(#clip-path)">
    <path id="Path_79" data-name="Path 79" d="M24.986,42.2a3.6,3.6,0,0,1-2.192-1.037,4.416,4.416,0,0,1-.725-.845,3.076,3.076,0,0,0-2.6-1.431,4.042,4.042,0,0,0-.972.126,8.551,8.551,0,0,1-1.94.327l-.121,0c-1.572-.059-2.138-.574-2.636-2.4a6.893,6.893,0,0,1-.168-1.363L13.6,35.1a2.756,2.756,0,0,0-1.8-2.425c-.092-.038-.184-.074-.276-.109a2.96,2.96,0,0,1-.388-.166l-.448-.238a8.161,8.161,0,0,1-1.206-.72,2.2,2.2,0,0,1-.8-2.612,6.865,6.865,0,0,1,.7-1.524c1.228-2.036,1.223-2.68-.038-4.595a4.274,4.274,0,0,1-.756-2.8.854.854,0,0,1,.1-.321,4.041,4.041,0,0,1,2.293-1.89c.144-.051.286-.11.428-.169.1-.041.194-.081.292-.118a2.989,2.989,0,0,0,1.959-2.886c.038-.6.131-1.208.222-1.8a1.947,1.947,0,0,1,.15-.391c.62-1.357,1.2-1.708,2.817-1.708h.159a3.432,3.432,0,0,1,.723.131c.141.035.283.07.424.1.2.041.769.17.769.17a3.154,3.154,0,0,0,.692.079,2.93,2.93,0,0,0,2.413-1.35,5.359,5.359,0,0,1,1.7-1.59,2.4,2.4,0,0,1,2.595.025,4.494,4.494,0,0,1,1.405,1.235s.114.15.138.188a3.076,3.076,0,0,0,2.65,1.551,3.943,3.943,0,0,0,1.223-.209,5.154,5.154,0,0,1,1.619-.283,3.928,3.928,0,0,1,1.171.176,1.791,1.791,0,0,1,1.011.721,4.335,4.335,0,0,1,.786,2.394c0,.172.017.346.028.52l.018.3a2.848,2.848,0,0,0,2.1,2.66l.135.048c.309.109.621.217.917.355a3.971,3.971,0,0,1,1.539,1.273,1.339,1.339,0,0,1,.38.867l-.012.072v.073a4.081,4.081,0,0,1-.716,2.419s-.161.247-.2.3a3.488,3.488,0,0,0,.067,4.454,3.925,3.925,0,0,1,.77,2.851.8.8,0,0,1-.086.3,4,4,0,0,1-2.166,1.836l-.138.052c-.119.045-.239.091-.36.13a3.2,3.2,0,0,0-2.329,3.4,4.647,4.647,0,0,1-.606,2.335,2.173,2.173,0,0,1-1.841,1.125,4.333,4.333,0,0,1-.555.036,4.213,4.213,0,0,1-1.315-.213A5.432,5.432,0,0,0,31.319,39l-.249-.052a3.045,3.045,0,0,0-.673-.078,2.986,2.986,0,0,0-2.388,1.305l-.169.215a5.229,5.229,0,0,1-.747.837,3.453,3.453,0,0,1-2.107.974m-5.229-4.328a2.923,2.923,0,0,1,2.023.723c.282.243.544.509.807.775l.189.189c.132.135.263.274.393.413.248.263.5.527.764.767a1.611,1.611,0,0,0,1.073.511,1.589,1.589,0,0,0,1.066-.508c.418-.378.8-.789,1.16-1.186l.1-.107a4.411,4.411,0,0,1,2.156-1.481,3.816,3.816,0,0,1,.894-.1,6.091,6.091,0,0,1,1.41.184c.4.094.8.174,1.107.234l.357.072.287,0c.973,0,1.4-.331,1.6-1.224a9.434,9.434,0,0,0,.245-1.6,4.014,4.014,0,0,1,2.711-3.908,13.771,13.771,0,0,0,1.527-.75,1.355,1.355,0,0,0,.667-2.051c-.066-.154-.143-.308-.225-.457-.1-.18-.2-.355-.3-.531-.186-.324-.372-.649-.535-.985a3.93,3.93,0,0,1-.512-2.108,5.56,5.56,0,0,1,.844-2.293c.232-.376.434-.771.635-1.167l.1-.2a1.372,1.372,0,0,0-.63-1.948l-.242-.124c-.483-.249-.967-.5-1.465-.712a3.891,3.891,0,0,1-2.587-3.567,16.7,16.7,0,0,0-.231-1.715c-.087-.485-.25-1.387-1.442-1.387-.089,0-.19,0-.305.012a10.678,10.678,0,0,0-1.569.263,7.034,7.034,0,0,1-1.512.194,3.06,3.06,0,0,1-2.1-.742c-.269-.23-.518-.485-.767-.738l-.224-.226c-.132-.132-.26-.268-.388-.4-.251-.267-.5-.532-.775-.774a1.366,1.366,0,0,0-2.107.007c-.438.4-.833.828-1.213,1.245A4.483,4.483,0,0,1,20.5,12.016a3.931,3.931,0,0,1-.869.093,6.254,6.254,0,0,1-1.44-.189,12.2,12.2,0,0,0-1.689-.292c-.121-.011-.226-.017-.316-.017a1.291,1.291,0,0,0-1.316,1.223,12.711,12.711,0,0,0-.248,1.693,3.881,3.881,0,0,1-2.11,3.526c-.168.085-.34.167-.512.248l-.54.254c-.3.136-.59.273-.877.426-1.143.61-1.345,1.232-.767,2.38.146.287.305.566.465.844.122.214.245.427.36.645A4.309,4.309,0,0,1,11.3,25.2a5.244,5.244,0,0,1-.783,2.222c-.323.543-.584,1.027-.8,1.482a1.315,1.315,0,0,0,.594,1.9,14.479,14.479,0,0,0,1.635.811,3.967,3.967,0,0,1,2.7,3.649,13.775,13.775,0,0,0,.216,1.483l.089.5a1.264,1.264,0,0,0,1.267,1.118,1.652,1.652,0,0,0,.245-.019l.489-.076c.6-.09,1.2-.182,1.792-.3a5.427,5.427,0,0,1,1.014-.1" fill="#fff"/>
    <path id="Path_80" data-name="Path 80" d="M23.075,29.369a.928.928,0,0,1-.513-.322L19.6,26.089c-.167-.169-.405-.5-.1-.8a.43.43,0,0,1,.313-.147.775.775,0,0,1,.509.258L23.1,28.14l3.681-3.689q1.8-1.8,3.6-3.6a.663.663,0,0,1,.461-.215.436.436,0,0,1,.427.332c.054.16.08.328-.194.6q-1.168,1.16-2.329,2.326l-5.158,5.159a.926.926,0,0,1-.512.321" fill="#fff"/>
  </g>
</svg>
