<svg xmlns="http://www.w3.org/2000/svg" xmlns:xlink="http://www.w3.org/1999/xlink" width="50" height="50" viewBox="0 0 50 50">
  <defs>
    <clipPath id="clip-path">
      <rect id="Rectangle_579" data-name="Rectangle 579" width="50" height="50" fill="#fff"/>
    </clipPath>
  </defs>
  <g id="Group_431" data-name="Group 431" clip-path="url(#clip-path)">
    <path id="Path_161" data-name="Path 161" d="M19.176,14.281,14.5,18.953,12.593,17.04a.767.767,0,0,0-1.084,1.084l2.453,2.454a.766.766,0,0,0,1.084,0l5.225-5.225a.767.767,0,1,0-1.1-1.073Zm9.343-9.5a.767.767,0,0,0-.908-.594,13.965,13.965,0,0,1-10.9-2.23.766.766,0,0,0-.881,0,13.963,13.963,0,0,1-10.9,2.23A.767.767,0,0,0,4,4.941v12.3A14,14,0,0,0,9.825,28.6l6,4.3a.765.765,0,0,0,.892,0l6-4.3a14,14,0,0,0,5.825-11.359V4.941A.756.756,0,0,0,28.519,4.784ZM27,17.236a12.465,12.465,0,0,1-5.184,10.113l-5.55,3.979-5.55-3.979A12.466,12.466,0,0,1,5.533,17.236V5.857A15.461,15.461,0,0,0,16.267,3.513,15.467,15.467,0,0,0,27,5.857Z" transform="translate(9 7.179)" fill="#fff"/>
  </g>
</svg>
