<svg xmlns="http://www.w3.org/2000/svg" xmlns:xlink="http://www.w3.org/1999/xlink" width="50" height="50" viewBox="0 0 50 50">
  <defs>
    <clipPath id="clip-path">
      <rect id="Rectangle_381" data-name="Rectangle 381" width="50" height="50" fill="#fff"/>
    </clipPath>
  </defs>
  <g id="Group_120" data-name="Group 120" clip-path="url(#clip-path)">
    <path id="Path_86" data-name="Path 86" d="M35.122,35.1a6.374,6.374,0,0,1-2.22-.384,7.253,7.253,0,0,1-4.979-6.359,3.007,3.007,0,0,0-2.749-2.75l-.172,0A2.9,2.9,0,0,0,22.059,28.1c-.033.172-.053.346-.073.521-.016.139-.031.28-.057.42a7.315,7.315,0,0,1-7.1,6.052,7.008,7.008,0,0,1-1.022-.075,7.044,7.044,0,0,1-5.845-4.678,8.051,8.051,0,0,1-.334-1.2c-.041-.185-.082-.37-.128-.553v-5.5l11.291-7.73a2.4,2.4,0,0,1,1.345-.456,1.848,1.848,0,0,1,1.431.687,1.686,1.686,0,0,1,.449,1.056c.01.32.008.641,0,.967H20.928c0-.225,0-.448-.014-.672a1,1,0,0,0-.449-.808.769.769,0,0,0-.368-.086,1.085,1.085,0,0,0-.586.173q-3.869,2.634-7.722,5.282l-.872.6a.644.644,0,0,0-.285.466l-.075.5.753.1c.2.027.4.054.6.074l7.857.805c.762.079,1.524.156,2.284.249,0,.04-.009.367-.009.367V25.5l.74-.406a4.545,4.545,0,0,1,2.185-.609,4.37,4.37,0,0,1,2.123.591l.5.275.21-.528a.772.772,0,0,0,.076-.248c.01-.106.019-.217.031-.3.08-.012.192-.024.281-.033L38.764,23.16l.138-.039.842-.272-.578-.608-.076-.069a1.936,1.936,0,0,0-.185-.153l-.817-.561q-3.8-2.605-7.605-5.2a1.254,1.254,0,0,0-.661-.21.74.74,0,0,0-.349.082,1.074,1.074,0,0,0-.456.867c-.017.2-.019.4-.016.608H27.872c0-.026,0-.053,0-.08a5.711,5.711,0,0,1,.089-1.13A1.87,1.87,0,0,1,29.818,14.9a2.157,2.157,0,0,1,1.2.379c1.182.794,2.355,1.6,3.527,2.408l7.805,5.351a1.68,1.68,0,0,0,.147.088v5.363a.79.79,0,0,0-.135.325A7.279,7.279,0,0,1,35.122,35.1" fill="#fff"/>
  </g>
</svg>
