<svg xmlns="http://www.w3.org/2000/svg" xmlns:xlink="http://www.w3.org/1999/xlink" width="50" height="50" viewBox="0 0 50 50">
  <defs>
    <clipPath id="clip-path">
      <rect id="Rectangle_581" data-name="Rectangle 581" width="50" height="50" fill="#fff"/>
    </clipPath>
  </defs>
  <g id="Group_433" data-name="Group 433" clip-path="url(#clip-path)">
    <path id="Icon_simple-dynatrace" data-name="Icon simple-dynatrace" d="M14.059,0a3.376,3.376,0,0,0-2.281.981C10.47,2.217,3.942,8.415,1.32,10.9A3.248,3.248,0,0,0,.24,13.4v.566a3.141,3.141,0,0,1,.641-1.238A3.772,3.772,0,0,1,3.321,11.5h0a96.348,96.348,0,0,1,9.791-.824,75.941,75.941,0,0,1,10.8.338l9.126-8.689s-4.782-.9-10.23-1.541Q18.59.266,14.349.009C14.318.009,14.214,0,14.059,0ZM34.4,3.762l-9.1,8.685a74.752,74.752,0,0,1-.205,10.8c-.284,3.675-.876,7.3-1.312,9.741a3.737,3.737,0,0,1-1.388,2.391,3.379,3.379,0,0,1-1.122.544c2.319-.765,1.636-10.57,1.636-10.57a76.983,76.983,0,0,1-10.821-.333L2.963,33.705s4.833.951,10.283,1.568c3.084.36,7.25.644,7.84.694a.486.486,0,0,0,.1-.018c-.02,0-.033.014-.052.018.207,0,.389.022.569.022a3.323,3.323,0,0,0,2.569-.972c2.622-2.494,9.124-8.715,10.41-9.95a3.272,3.272,0,0,0,1.08-2.52q-.009-4.245-.311-8.481C35.092,8.592,34.4,3.76,34.4,3.76Zm-28.615,8.7c-2.6,0-5.262.312-5.544,1.531.026,1.824.075,4.705.308,7.92C.908,27.384,1.6,32.238,1.6,32.238l9.123-8.685a67.919,67.919,0,0,1,.182-10.8h0a48.6,48.6,0,0,0-5.122-.3Z" transform="translate(6.763 7)" fill="none" stroke="#fff" stroke-width="1"/>
  </g>
</svg>
