<svg xmlns="http://www.w3.org/2000/svg" xmlns:xlink="http://www.w3.org/1999/xlink" width="50" height="50" viewBox="0 0 50 50">
  <defs>
    <clipPath id="clip-path">
      <rect id="Rectangle_581" data-name="Rectangle 581" width="50" height="50" fill="#fff"/>
    </clipPath>
  </defs>
  <g id="Group_433" data-name="Group 433" clip-path="url(#clip-path)">
    <g id="Group_471" data-name="Group 471" transform="translate(-9.122 -16)">
      <path id="Path_188" data-name="Path 188" d="M44.3,33.483l-.582,1.032a16.048,16.048,0,0,1,5.953,5.773l1.019-.6A17.238,17.238,0,0,0,44.3,33.483Zm-1.836-.9a18.486,18.486,0,0,0-1.836-.665l-.344,1.133A17.3,17.3,0,0,1,42,33.671Zm-7.336-.291a17.865,17.865,0,0,1,4.012.454l.266-1.154a19.055,19.055,0,0,0-4.278-.484,18.618,18.618,0,0,0-7.949,1.748l.5,1.073a17.442,17.442,0,0,1,7.447-1.637Zm-8.591,2.226-.582-1.032a17.373,17.373,0,0,0-5.125,4.36l.929.735a16.2,16.2,0,0,1,4.778-4.063Zm-5.953,5.773-1.019-.6c-.236.4-.457.813-.657,1.229l1.068.512C20.159,41.042,20.364,40.658,20.583,40.288Zm25.086-13.74-2.24,1.225a.592.592,0,0,0,0,1.039l2.24,1.225,1.225,2.24a.592.592,0,0,0,1.039,0l1.225-2.24,2.24-1.225a.592.592,0,0,0,0-1.039l-2.24-1.225-1.225-2.24a.592.592,0,0,0-1.039,0Zm1.745-.722.789,1.442a.592.592,0,0,0,.235.235l1.442.789-1.442.789a.592.592,0,0,0-.235.235l-.789,1.442-.789-1.442a.592.592,0,0,0-.235-.235l-1.442-.789,1.442-.789a.592.592,0,0,0,.235-.235Z" transform="translate(-1.364 0)" fill="#fff"/>
      <path id="Path_189" data-name="Path 189" d="M53.514,40.807H52.065c-.681-1.259-2.041-2.1-4.069-2.514a15.652,15.652,0,0,0-8.12.523,5.122,5.122,0,0,0-3.2,2.4,4.114,4.114,0,0,0-1.806-.411H34.81a.861.861,0,0,0-.18.02,4.23,4.23,0,0,0-2.02.536c-.023-.047-.041-.1-.065-.142a5.121,5.121,0,0,0-3.2-2.4,15.652,15.652,0,0,0-8.12-.523c-2.028.411-3.387,1.255-4.069,2.514H15.876a.876.876,0,0,0,0,1.752h.789c-.221,2.48.428,5.689,2.916,7.433a9.352,9.352,0,0,0,5.258,1.516h0a8.214,8.214,0,0,0,4.352-1.126c2.086-1.3,2.9-2.945,3.611-5.346a5.807,5.807,0,0,0,.24-1.826.812.812,0,0,0,.1-.1,2.238,2.238,0,0,1,1.566-.542c.021,0,.041-.005.061-.007s.043.007.065.007a2.382,2.382,0,0,1,1.358.383,5.734,5.734,0,0,0,.229,2.082c.707,2.4,1.524,4.045,3.612,5.346a8.214,8.214,0,0,0,4.352,1.126,9.352,9.352,0,0,0,5.258-1.516c2.488-1.744,3.137-4.953,2.916-7.433h.953a.875.875,0,1,0,0-1.751ZM31.124,44.541c-.7,2.385-1.4,3.444-2.858,4.354a6.57,6.57,0,0,1-3.426.861h0a7.679,7.679,0,0,1-4.253-1.2c-1.917-1.343-2.366-4.052-2.168-5.964.1-.925.541-2.055,3.158-2.586a13.907,13.907,0,0,1,7.208.464A3.454,3.454,0,0,1,31,42.033,3.371,3.371,0,0,1,31.124,44.541ZM48.64,48.557a7.678,7.678,0,0,1-4.253,1.2A6.571,6.571,0,0,1,40.96,48.9C39.5,47.984,38.8,46.926,38.1,44.541a3.364,3.364,0,0,1,.129-2.508,3.46,3.46,0,0,1,2.211-1.561,13.908,13.908,0,0,1,7.208-.464c2.617.531,3.063,1.661,3.159,2.586C51.006,44.5,50.557,47.213,48.64,48.557Z" transform="translate(-0.877 3.443)" fill="#fff"/>
    </g>
  </g>
</svg>
