<svg xmlns="http://www.w3.org/2000/svg" xmlns:xlink="http://www.w3.org/1999/xlink" width="50" height="50" viewBox="0 0 50 50">
  <defs>
    <clipPath id="clip-path">
      <rect id="Rectangle_371" data-name="Rectangle 371" width="50" height="50" fill="#fff"/>
    </clipPath>
  </defs>
  <g id="Group_86" data-name="Group 86" clip-path="url(#clip-path)">
    <path id="Path_60" data-name="Path 60" d="M24.927,12.266a.541.541,0,0,1-.521-.362,1.136,1.136,0,0,1-.034-.333V10.187c0-.968,0-1.937-.009-2.905a.733.733,0,0,1,.414-.78l.356.015a.768.768,0,0,1,.348.766c-.013.948-.011,1.9-.01,2.844v1.55a.544.544,0,0,1-.452.582Z" fill="#fff"/>
    <path id="Path_61" data-name="Path 61" d="M24.92,34.077a16.153,16.153,0,0,1-7.478-1.941,24.209,24.209,0,0,1-8.336-7.3c-.294-.4-.3-.544-.009-.928a23.907,23.907,0,0,1,9.715-7.96,15.761,15.761,0,0,1,6.113-1.279,16.448,16.448,0,0,1,8.768,2.653,25.234,25.234,0,0,1,7.035,6.556c.308.417.309.56.011.959a23.757,23.757,0,0,1-9.4,7.809,15.711,15.711,0,0,1-6.416,1.428m.006-18.3a14.58,14.58,0,0,0-5.885,1.293,22.885,22.885,0,0,0-8.69,7.007.433.433,0,0,0,.04.619,24.359,24.359,0,0,0,6.255,5.7,15.792,15.792,0,0,0,8.376,2.558,14.286,14.286,0,0,0,4.6-.829,22.288,22.288,0,0,0,9.873-7.474.431.431,0,0,0-.03-.608,23.667,23.667,0,0,0-7.3-6.314,15.177,15.177,0,0,0-7.234-1.952" fill="#fff"/>
    <path id="Path_62" data-name="Path 62" d="M24.912,42.216a.543.543,0,0,1-.54-.613q0-2.263,0-4.527a.552.552,0,1,1,1.1-.006q0,.8,0,1.6s0,2.4,0,2.921a.547.547,0,0,1-.549.622Z" fill="#fff"/>
    <path id="Path_63" data-name="Path 63" d="M14.559,15.971a.5.5,0,0,1-.213-.047.779.779,0,0,1-.212-.15l-.465-.461c-.816-.812-1.631-1.623-2.438-2.444a.631.631,0,0,1-.184-.621.485.485,0,0,1,.392-.331h.035a.8.8,0,0,1,.523.161c1,.954,1.965,1.936,2.932,2.919a1.021,1.021,0,0,1,.17.286c.019.041.035.076.049.1a.624.624,0,0,1-.589.587" fill="#fff"/>
    <path id="Path_64" data-name="Path 64" d="M35.342,15.979a.622.622,0,0,1-.522-.267.507.507,0,0,1-.058-.479.764.764,0,0,1,.155-.241L35.4,14.5c.809-.816,1.618-1.632,2.449-2.426a.752.752,0,0,1,.468-.165c.287.048.424.165.476.335a.675.675,0,0,1-.209.653q-1.046,1.059-2.1,2.107l-.751.748a.588.588,0,0,1-.122.107,2.349,2.349,0,0,1-.244.1Z" fill="#fff"/>
    <path id="Path_65" data-name="Path 65" d="M11.42,37.525a1.526,1.526,0,0,1-.344-.321.461.461,0,0,1,.109-.584c.211-.227.43-.444.65-.661,0,0,1.782-1.784,2.272-2.267a.7.7,0,0,1,.472-.235.53.53,0,0,1,.333.13.569.569,0,0,1,.221.4.516.516,0,0,1-.156.4c-.995,1.022-2.009,2.027-3.026,3.026a.866.866,0,0,1-.265.14c-.047.019-.1.039-.15.063l-.116-.092" fill="#fff"/>
    <path id="Path_66" data-name="Path 66" d="M38.277,37.569a.682.682,0,0,1-.465-.225c-.9-.894-1.8-1.8-2.7-2.7l-.181-.181c-.344-.347-.208-.564-.163-.635a1.461,1.461,0,0,1,.338-.331l.126-.1.156.08a1.3,1.3,0,0,1,.324.2Q37.166,35.1,38.6,36.547a.552.552,0,0,1,.061.845.53.53,0,0,1-.379.177" fill="#fff"/>
    <path id="Path_67" data-name="Path 67" d="M24.925,30.559c-.185,0-.371-.009-.558-.025a6.212,6.212,0,0,1-4.361-2.427,6.138,6.138,0,0,1-1.183-4.786.612.612,0,0,1,.56-.543.577.577,0,0,1,.438.2.618.618,0,0,1,.1.482,5.143,5.143,0,0,0,.467,3.161,5.064,5.064,0,0,0,4.547,2.811c.161,0,.321-.008.48-.023a5.065,5.065,0,0,0,4.49-4.129,5.012,5.012,0,0,0-5.582-5.93A8.943,8.943,0,0,0,23.2,19.6a1.134,1.134,0,0,1-.3.045.5.5,0,0,1-.513-.364c-.111-.322.046-.59.43-.737a5.786,5.786,0,0,1,2.068-.381,6.236,6.236,0,0,1,6.145,5.3c.028.21.045.421.064.632l.027.305a6.22,6.22,0,0,1-6.2,6.152" fill="#fff"/>
    <path id="Path_68" data-name="Path 68" d="M24.924,27.029a2.661,2.661,0,1,1,2.659-2.665,2.665,2.665,0,0,1-2.659,2.665Zm-.012-4.217a1.581,1.581,0,0,0-1.544,1.577,1.588,1.588,0,0,0,1.545,1.534,1.587,1.587,0,0,0,1.566-1.556,1.578,1.578,0,0,0-1.555-1.555Z" fill="#fff"/>
    <path id="Path_69" data-name="Path 69" d="M20.7,21.4a.539.539,0,0,1-.552-.543.54.54,0,0,1,.549-.56.542.542,0,0,1,.552.558.54.54,0,0,1-.535.545Z" fill="#fff"/>
  </g>
</svg>
